<?xml version="1.0" standalone="no"?>
<!DOCTYPE svg PUBLIC "-//W3C//DTD SVG 20010904//EN"
 "http://www.w3.org/TR/2001/REC-SVG-20010904/DTD/svg10.dtd">
<svg version="1.0" xmlns="http://www.w3.org/2000/svg"
 width="200.000000pt" height="200.000000pt" viewBox="0 0 200.000000 200.000000"
 preserveAspectRatio="xMidYMid meet">
<metadata>
Created by potrace 1.11, written by Peter Selinger 2001-2013
</metadata>
<g transform="translate(0.000000,200.000000) scale(0.100000,-0.100000)"
fill="#000000" stroke="none">
<path d="M172 1646 c-65 -74 -49 -187 32 -237 l30 -18 -1 -175 c0 -97 2 -176
6 -177 32 -5 84 -3 94 3 7 4 11 38 12 90 l0 83 108 3 107 3 1 -208 c0 -114 2
-218 5 -231 14 -76 72 -150 148 -190 51 -26 52 -26 286 -26 l235 0 51 27 c97
50 151 138 152 250 0 31 1 129 1 217 l1 161 107 -3 108 -3 0 -70 c1 -69 0 -71
-38 -105 -21 -19 -43 -43 -48 -53 -18 -32 -19 -87 -4 -125 15 -35 52 -82 64
-82 4 0 6 46 6 103 l0 102 77 3 77 3 -1 -101 c-1 -55 1 -102 4 -105 4 -5 29
17 56 49 7 9 15 36 18 60 8 56 -23 127 -69 155 l-32 20 1 176 1 176 -56 -3
-56 -3 0 -80 0 -80 -110 -3 -111 -2 -12 47 c-10 34 -27 61 -65 99 -77 77 -110
84 -377 81 -195 -2 -219 -4 -260 -23 -62 -29 -116 -87 -139 -148 l-19 -51
-108 0 -109 0 -1 69 c0 62 2 69 22 78 34 16 72 77 77 123 5 42 -13 97 -40 127
-32 36 -39 22 -38 -79 l0 -98 -77 -3 -76 -3 0 102 c0 55 -3 103 -5 105 -2 3
-18 -11 -35 -30z m739 -459 c4 -16 4 -40 -1 -52 -11 -28 -56 -53 -87 -47 -48
7 -82 89 -51 120 8 8 35 12 72 10 56 -3 60 -5 67 -31z m319 14 c33 -63 -36
-135 -103 -106 -36 15 -54 80 -32 115 3 6 33 10 65 10 48 0 61 -4 70 -19z
m-287 -350 c9 -1 17 -8 17 -16 0 -13 -21 -15 -130 -15 -107 0 -130 3 -130 14
0 17 50 22 160 19 36 -1 73 -2 83 -2z m196 -5 c21 -13 0 -26 -43 -26 -46 0
-57 5 -50 23 5 13 74 15 93 3z m161 -11 c0 -10 -11 -15 -35 -15 -24 0 -35 5
-35 15 0 10 11 15 35 15 24 0 35 -5 35 -15z m-530 -100 c0 -10 -11 -15 -35
-15 -24 0 -35 5 -35 15 0 10 11 15 35 15 24 0 35 -5 35 -15z m184 0 c4 -12 -4
-15 -44 -15 -46 0 -67 9 -53 24 13 13 91 6 97 -9z m346 0 c0 -13 -21 -15 -130
-15 -109 0 -130 2 -130 15 0 13 21 15 130 15 109 0 130 -2 130 -15z"/>
<path d="M731 519 c-10 -28 -1 -46 18 -35 4 3 22 2 38 -3 27 -8 32 -6 47 19
17 30 13 39 -17 35 -10 -2 -31 0 -47 5 -26 7 -30 5 -39 -21z"/>
<path d="M1227 539 c-16 -4 -37 -6 -47 -4 -28 5 -34 -12 -13 -39 13 -16 24
-21 38 -16 11 4 32 5 47 3 26 -4 27 -3 18 28 -12 39 -9 38 -43 28z"/>
<path d="M742 449 c-63 -13 -108 -82 -75 -115 8 -8 15 -14 16 -14 88 -18 187
1 187 35 0 58 -67 108 -128 94z"/>
<path d="M1205 447 c-34 -10 -64 -45 -71 -82 -3 -19 2 -28 23 -39 32 -16 139
-14 171 3 18 9 19 16 11 43 -17 61 -75 93 -134 75z"/>
</g>
</svg>
